<?xml version="1.0" encoding="UTF-8" standalone="no"?>
<!-- Created with Inkscape (http://www.inkscape.org/) -->
<svg
   xmlns:svg="http://www.w3.org/2000/svg"
   xmlns="http://www.w3.org/2000/svg"
   version="1.0"
   width="640"
   height="370"
   id="svg2">
  <defs
     id="defs4" />
  <g
     transform="translate(20,-702.36218)"
     id="layer1">
    <path
       d="M 300,722.375 L 0,887.375 L 200,797.375 L 221.25,843.96875 C 208.3215,854.03003 200,869.73438 200,887.375 C 200,905.01562 208.3215,920.71997 221.25,930.78125 L 200,977.375 L 0,887.375 L 300,1052.375 L 600,887.375 L 400,977.375 L 378.75,930.78125 C 391.6785,920.71997 400,905.01562 400,887.375 C 400,869.73438 391.6785,854.03003 378.75,843.96875 L 400,797.375 L 600,887.375 L 300,722.375 z M 300,752.375 L 366.65625,782.375 L 233.34375,782.375 L 300,752.375 z M 239.84375,812.375 L 360.15625,812.375 L 346.5,842.375 L 253.5,842.375 L 239.84375,812.375 z M 235,872.375 L 267.1875,872.375 L 332.8125,872.375 L 365,872.375 C 368.13361,876.55117 370,881.75265 370,887.375 C 370,892.99735 368.13361,898.19883 365,902.375 L 332.84375,902.375 L 267.15625,902.375 L 235,902.375 C 231.86639,898.19883 230,892.99735 230,887.375 C 230,881.75265 231.86639,876.55117 235,872.375 z M 253.5,932.375 L 346.5,932.375 L 360.1875,962.375 L 239.8125,962.375 L 253.5,932.375 z M 233.34375,992.375 L 366.65625,992.375 L 300,1022.375 L 233.34375,992.375 z "
       style="opacity:1;fill:#000000;fill-opacity:1;fill-rule:nonzero;stroke:none;stroke-width:10;stroke-linecap:round;stroke-linejoin:round;stroke-miterlimit:4;stroke-dasharray:none;stroke-opacity:1"
       id="rect3203" />
  </g>
</svg>
